<?xml version="1.0" standalone="no"?>
<!DOCTYPE svg PUBLIC "-//W3C//DTD SVG 20010904//EN"
 "http://www.w3.org/TR/2001/REC-SVG-20010904/DTD/svg10.dtd">
<svg version="1.0" xmlns="http://www.w3.org/2000/svg"
 width="1083.000000pt" height="1083.000000pt" viewBox="0 0 1083.000000 1083.000000"
 preserveAspectRatio="xMidYMid meet">
<metadata>
Created by potrace 1.11, written by Peter Selinger 2001-2013
</metadata>
<g transform="translate(0.000000,1083.000000) scale(0.100000,-0.100000)"
fill="#000000" stroke="none">
<path d="M5315 10822 c-147 -18 -314 -100 -421 -206 -94 -93 -178 -249 -200
-372 -7 -40 -8 -41 -66 -48 -67 -9 -194 -32 -275 -51 -34 -8 -78 -18 -99 -21
-64 -10 -323 -83 -479 -135 -1065 -356 -1998 -1068 -2625 -2004 -241 -360
-441 -757 -581 -1157 -75 -212 -155 -501 -183 -661 -3 -15 -7 -35 -10 -45 -3
-9 -7 -33 -10 -52 -3 -19 -8 -46 -11 -60 -2 -13 -7 -42 -10 -65 -3 -22 -8 -51
-10 -65 -6 -35 -13 -85 -20 -150 -3 -30 -8 -68 -10 -85 -13 -111 -20 -297 -20
-535 0 -272 8 -424 30 -585 2 -16 7 -52 10 -80 4 -27 9 -61 11 -75 2 -14 6
-45 10 -70 3 -25 7 -52 9 -60 2 -8 7 -28 9 -45 7 -41 52 -249 66 -305 7 -25
13 -53 15 -63 10 -45 90 -303 132 -422 164 -464 417 -935 722 -1345 47 -63 96
-126 107 -140 12 -14 57 -68 100 -120 87 -105 409 -432 520 -528 66 -57 200
-166 273 -222 18 -14 45 -35 61 -47 65 -53 376 -255 495 -322 458 -260 885
-427 1390 -546 77 -18 154 -36 170 -38 17 -3 68 -12 115 -21 47 -8 110 -18
140 -21 30 -4 57 -8 60 -10 3 -1 39 -6 80 -10 41 -3 89 -8 105 -10 100 -13
292 -19 515 -19 304 1 398 7 685 44 50 6 101 14 115 16 14 3 50 9 80 14 44 8
243 49 310 65 141 33 552 162 635 199 17 8 64 28 107 44 95 38 142 59 293 133
1023 498 1860 1335 2355 2354 114 235 121 251 184 418 137 364 232 724 281
1062 3 23 7 50 9 60 2 11 7 49 11 85 3 36 8 76 10 90 4 23 13 142 20 250 5 71
6 488 1 560 -9 137 -18 246 -21 260 -2 8 -7 44 -10 80 -6 62 -39 276 -50 330
-3 14 -8 41 -11 60 -11 70 -97 408 -132 515 -20 61 -37 115 -38 120 -1 6 -21
62 -44 125 -100 271 -248 586 -382 809 -37 63 -68 116 -68 117 0 7 -172 261
-233 344 -561 761 -1338 1368 -2186 1709 -201 81 -400 151 -526 186 -55 15
-198 51 -235 60 -8 2 -44 10 -80 19 -36 8 -78 17 -95 20 -38 7 -72 14 -108 22
-32 7 -49 9 -124 20 -46 6 -53 10 -62 37 -6 16 -11 36 -11 44 0 8 -14 49 -31
91 -32 80 -90 174 -143 230 -96 104 -261 194 -396 217 -44 8 -185 12 -225 7z
m-599 -949 c29 -86 101 -208 159 -268 83 -87 242 -184 328 -200 21 -4 39 -11
42 -15 8 -13 9 -1030 1 -1037 -8 -8 -10 -9 -121 -17 -49 -3 -99 -8 -110 -10
-11 -2 -42 -7 -70 -10 -131 -19 -188 -30 -335 -66 -130 -33 -261 -75 -394
-127 -106 -41 -378 -173 -430 -208 -20 -14 -39 -25 -42 -25 -10 0 -225 -147
-316 -217 -444 -340 -814 -833 -1022 -1362 -64 -161 -139 -414 -160 -536 -3
-16 -8 -41 -11 -55 -7 -35 -13 -76 -21 -129 -3 -25 -8 -57 -10 -71 -26 -146
-25 -618 2 -800 11 -80 35 -222 39 -233 3 -7 6 -23 9 -37 52 -290 205 -681
387 -984 173 -290 446 -611 688 -806 24 -19 48 -40 55 -45 6 -6 38 -31 71 -56
496 -375 1085 -599 1700 -645 168 -13 535 -6 626 11 9 2 40 6 70 10 161 19
460 93 644 159 241 86 533 235 731 375 l68 47 76 -46 c218 -134 433 -194 695
-194 355 0 668 129 921 379 154 152 263 327 328 526 49 152 60 226 61 394 0
205 -10 271 -66 442 -95 287 -297 541 -561 702 -37 22 -84 47 -104 56 -31 13
-35 18 -30 37 11 37 15 485 6 583 -10 94 -18 163 -25 206 -3 14 -7 41 -9 60
-3 19 -12 68 -21 109 -9 41 -19 86 -21 100 -9 45 -54 204 -80 280 -374 1097
-1291 1908 -2414 2134 -69 13 -149 28 -179 31 -30 4 -63 8 -73 10 -11 2 -61 7
-111 11 -51 4 -99 8 -107 9 -13 2 -15 68 -15 525 l0 524 48 12 c208 53 417
254 482 463 7 21 11 23 60 17 29 -3 72 -10 96 -15 24 -6 60 -12 79 -16 204
-32 565 -137 825 -238 257 -100 546 -245 780 -390 78 -48 278 -181 299 -198 6
-5 70 -55 141 -110 173 -136 252 -206 426 -379 181 -181 263 -272 408 -458
336 -432 605 -935 772 -1446 42 -128 115 -389 124 -446 3 -19 10 -51 15 -70 5
-19 12 -51 15 -70 3 -19 8 -42 10 -50 2 -8 7 -33 10 -55 31 -207 34 -231 41
-300 3 -38 8 -81 9 -95 22 -176 22 -724 1 -838 -2 -9 -7 -52 -11 -95 -3 -43
-8 -88 -10 -100 -2 -12 -6 -44 -10 -71 -6 -45 -28 -179 -40 -236 -3 -14 -8
-41 -11 -60 -4 -19 -8 -42 -9 -50 -2 -8 -15 -62 -30 -120 -14 -58 -28 -112
-30 -121 -7 -33 -68 -226 -100 -319 -243 -696 -633 -1315 -1155 -1830 -201
-198 -305 -288 -515 -447 -570 -430 -1281 -743 -1980 -872 -193 -35 -235 -42
-370 -56 -33 -3 -73 -8 -90 -10 -166 -22 -777 -22 -865 0 -8 2 -51 7 -94 10
-43 4 -88 8 -98 10 -11 3 -41 7 -67 10 -126 14 -471 87 -621 130 -152 44 -416
135 -495 170 -16 7 -59 25 -95 40 -121 50 -315 146 -450 223 -143 81 -144 82
-214 125 -54 33 -306 206 -322 221 -6 6 -22 18 -34 26 -12 8 -28 20 -34 25 -6
6 -31 26 -56 45 -50 39 -64 50 -200 171 -664 587 -1161 1374 -1418 2244 -46
156 -100 386 -117 495 -3 19 -7 46 -10 60 -9 51 -27 177 -40 290 -28 246 -28
790 0 1005 2 17 7 57 10 90 4 32 8 66 10 75 1 8 6 38 9 65 4 28 11 73 16 100
5 28 12 61 14 75 12 70 58 268 86 370 166 612 477 1224 869 1715 167 210 417
474 581 615 41 36 77 68 80 71 12 14 253 201 330 256 362 259 801 484 1220
627 100 34 258 83 290 91 8 2 69 17 135 33 66 16 158 37 205 46 229 42 238 43
246 19z m535 -1851 c3 -104 -2 -1725 -6 -1731 -2 -5 -25 -12 -51 -16 -68 -10
-72 -11 -159 -40 -358 -121 -645 -418 -749 -776 -24 -84 -29 -107 -41 -203
-31 -226 31 -517 153 -721 190 -318 501 -521 872 -570 54 -7 233 -7 275 0 45
8 97 16 125 22 55 10 201 64 266 98 121 64 206 127 306 227 l97 98 254 -147
255 -147 -19 -49 c-25 -63 -58 -181 -65 -232 -3 -22 -10 -60 -14 -85 -9 -47
-6 -304 4 -355 4 -16 11 -52 16 -80 37 -181 140 -399 257 -542 l34 -42 -73
-49 c-96 -64 -237 -142 -355 -198 -94 -44 -352 -144 -371 -144 -5 0 -37 -9
-71 -20 -72 -23 -277 -67 -353 -76 -29 -4 -55 -8 -58 -10 -30 -16 -497 -25
-640 -11 -98 10 -218 28 -295 44 -11 2 -44 8 -73 14 -29 6 -114 28 -188 50
-781 228 -1423 766 -1789 1499 -66 131 -140 313 -170 415 -9 33 -21 71 -26 85
-18 53 -52 202 -65 285 -3 17 -9 55 -14 85 -32 188 -35 713 -5 830 2 8 6 33
10 55 10 69 15 98 31 165 9 36 18 75 20 88 2 12 20 74 39 138 179 587 532
1094 1030 1475 114 87 295 202 405 257 25 13 52 27 60 31 97 55 443 186 540
205 14 2 52 11 85 20 33 8 74 18 90 21 17 2 41 7 55 10 13 2 42 7 65 10 22 3
47 8 55 10 8 2 49 7 90 10 41 3 75 7 76 8 2 1 21 3 43 4 33 2 41 -1 42 -15z
m464 4 c61 -6 107 -13 265 -41 19 -3 87 -19 150 -36 63 -16 122 -31 130 -33
22 -6 190 -66 225 -80 108 -46 153 -67 255 -119 143 -74 297 -171 427 -270
409 -309 746 -748 934 -1214 17 -43 35 -87 40 -98 30 -70 104 -327 123 -430
27 -141 44 -272 51 -390 5 -82 6 -304 1 -355 -2 -19 -4 -43 -5 -54 -1 -14 -6
-17 -23 -13 -71 18 -269 24 -378 12 -77 -9 -217 -41 -287 -65 -127 -45 -310
-149 -398 -225 -76 -67 -124 -115 -171 -171 l-51 -61 -44 24 c-117 66 -446
258 -457 268 -11 10 -9 22 7 66 96 262 86 576 -26 839 -153 359 -469 617 -848
693 l-70 14 -3 875 -2 875 42 -2 c24 -1 75 -6 113 -9z m2495 -3431 c57 -9 61
-12 56 -38 -22 -101 -64 -259 -96 -352 -40 -120 -158 -395 -169 -395 -3 0 -48
25 -100 55 -51 30 -94 55 -96 55 -9 0 -520 301 -523 308 -5 16 91 114 172 174
138 103 314 176 466 194 30 3 56 7 58 9 5 4 190 -3 232 -10z m467 -202 c195
-155 318 -356 368 -599 83 -400 -98 -823 -448 -1048 -246 -158 -544 -202 -822
-121 -79 23 -189 68 -211 86 -7 6 31 51 116 136 386 388 647 817 803 1323 43
139 72 251 76 293 1 12 56 -20 118 -70z m-877 -925 c-118 -168 -221 -288 -376
-440 -127 -123 -115 -121 -174 -41 -96 129 -177 328 -195 474 -7 63 -7 230 0
262 3 12 7 33 9 47 9 54 39 161 51 181 3 4 169 -88 369 -204 l364 -210 -48
-69z"/>
</g>
</svg>
